# xmcd
# Copyright (C) 1995-1998 Ti Kan
#
# Track frame offsets:
#       150
#       19590
#       34933
#       52841
#       72859
#       90344
#       109195
#       124398
#       152592
#       173735
#       192182
#       211082
#       227244
#       253087
#
# Disc length: 3629 seconds
#
# Revision: 0
# Processed by: cddbd v1.5.2PL0 Copyright (c) Steve Scherf et al.
# Submitted via: CD-Import v1.0
#
DISCID=b20e2b0e
DTITLE=Alain Clark - Colorblind
DYEAR=11
DGENRE=
TTITLE0=Wonderful Day
TTITLE1=Caught In A Loop
TTITLE2=Love Is Everywhere
TTITLE3=Good Days
TTITLE4=Too Soo To End
TTITLE5=For Freedom
TTITLE6=Leave Her
TTITLE7=Corner Of My Street
TTITLE8=What You See Is What You Get
TTITLE9=Rich
TTITLE10=Blame It On Me
TTITLE11=I Saw You Again
TTITLE12=Easy
TTITLE13=Father and Friend
EXTD=
EXTT0=
EXTT1=
EXTT2=
EXTT3=
EXTT4=
EXTT5=
EXTT6=
EXTT7=
EXTT8=
EXTT9=
EXTT10=
EXTT11=
EXTT12=
EXTT13=
PLAYORDER=
